<?xml version="1.0" standalone="no"?>
<!DOCTYPE svg PUBLIC "-//W3C//DTD SVG 20010904//EN"
 "http://www.w3.org/TR/2001/REC-SVG-20010904/DTD/svg10.dtd">
<svg version="1.0" xmlns="http://www.w3.org/2000/svg"
 width="1280.000000pt" height="1126.000000pt" viewBox="0 0 1280.000000 1126.000000"
 preserveAspectRatio="xMidYMid meet">
<g transform="translate(0.000000,1126.000000) scale(0.100000,-0.100000)"
fill="#000000" stroke="none">
<path d="M2557 10162 l-1089 -1095 1402 -1402 c1308 -1308 1402 -1404 1389
-1422 -8 -11 -637 -651 -1398 -1422 l-1383 -1403 38 -41 c171 -180 2181 -2202
2190 -2202 6 0 642 635 1413 1410 770 776 1406 1412 1412 1414 6 2 584 -569
1285 -1270 l1273 -1273 178 174 c98 96 607 600 1131 1120 l952 945 -1271 1271
c-782 782 -1270 1277 -1268 1286 2 9 629 646 1394 1417 764 770 1392 1406
1394 1412 2 6 -484 499 -1080 1095 l-1084 1084 -75 0 -75 0 -1372 -1372 -1372
-1372 -678 671 c-373 370 -993 987 -1378 1372 l-700 701 -70 -1 -70 -1 -1088
-1096z"/>
</g>
</svg>
